<svg width="185" height="46" viewBox="0 0 185 46" fill="none" xmlns="http://www.w3.org/2000/svg">
<path d="M17.6469 10.7162H14.5495C13.9329 10.7162 13.5847 10.6074 13.5049 10.3898C13.4251 10.1722 13.5412 9.67896 13.8531 8.91732L16.566 1.80871C16.8779 1.04707 17.1464 0.553801 17.3785 0.336191C17.6106 0.11858 18.0385 0.00976562 18.655 0.00976562H37.3986C37.9644 0.00976562 38.2908 0.11858 38.3634 0.336191C38.4431 0.553801 38.3271 1.04707 38.0152 1.80871L35.3023 8.91732C34.9904 9.67896 34.722 10.1722 34.4899 10.3898C34.2578 10.6074 33.8588 10.7162 33.293 10.7162H30.1957L20.824 35.0741H23.9212C24.487 35.0741 24.8135 35.1684 24.886 35.357C24.9658 35.5456 24.8715 36.0244 24.6176 36.786L21.7524 44.1412C21.4912 44.9029 21.2519 45.3816 21.0197 45.5702C20.7876 45.7588 20.3887 45.8531 19.8157 45.8531H1.07209C0.455531 45.8531 0.107396 45.7588 0.0276057 45.5702C-0.052185 45.3816 0.0421095 44.9029 0.295989 44.1412L3.16116 36.786C3.42229 36.0244 3.66167 35.5456 3.89379 35.357C4.12591 35.1684 4.55389 35.0741 5.17045 35.0741H8.26779L17.6396 10.7162H17.6469Z" fill="black"/>
<path d="M44.055 10.7123H40.9576C40.3411 10.7123 39.9929 10.6035 39.9131 10.3859C39.8333 10.1683 39.9494 9.67505 40.2613 8.91341L42.9742 1.8048C43.2861 1.04317 43.5545 0.549895 43.7866 0.332284C44.0187 0.114674 44.4467 0.00585938 45.0632 0.00585938H63.8068C64.3726 0.00585938 64.699 0.114674 64.7716 0.332284C64.8514 0.549895 64.7353 1.04317 64.4234 1.8048L61.7105 8.91341C61.3986 9.67505 61.1302 10.1683 60.8981 10.3859C60.666 10.6035 60.267 10.7123 59.7012 10.7123H56.6039L47.2321 35.0702H50.3294C50.8952 35.0702 51.2216 35.1645 51.2941 35.3531C51.3739 35.5417 51.2796 36.0204 51.0258 36.7821L48.1606 44.1373C47.8995 44.899 47.6601 45.3777 47.428 45.5663C47.1958 45.7549 46.7969 45.8492 46.2238 45.8492H27.4803C26.8637 45.8492 26.5156 45.7549 26.4358 45.5663C26.356 45.3777 26.4503 44.899 26.7042 44.1373L29.5694 36.7821C29.8305 36.0204 30.0699 35.5417 30.302 35.3531C30.5341 35.1645 30.9621 35.0702 31.5787 35.0702H34.676L44.0477 10.7123H44.055Z" fill="black"/>
<path d="M70.4613 10.7123H67.364C66.7474 10.7123 66.3993 10.6035 66.3195 10.3859C66.2397 10.1683 66.3557 9.67505 66.6676 8.91341L69.3805 1.8048C69.6924 1.04317 69.9608 0.549895 70.1929 0.332284C70.425 0.114674 70.853 0.00585938 71.4696 0.00585938H90.2131C90.7789 0.00585938 91.1054 0.114674 91.1779 0.332284C91.2577 0.549895 91.1416 1.04317 90.8297 1.8048L88.1168 8.91341C87.8049 9.67505 87.5365 10.1683 87.3044 10.3859C87.0722 10.6035 86.6734 10.7123 86.1076 10.7123H83.0102L73.6384 35.0702H76.7358C77.3016 35.0702 77.6279 35.1645 77.7005 35.3531C77.7803 35.5417 77.686 36.0204 77.4321 36.7821L74.5669 44.1373C74.3058 44.899 74.0664 45.3777 73.8343 45.5663C73.6022 45.7549 73.2032 45.8492 72.6302 45.8492H53.8866C53.2701 45.8492 52.9218 45.7549 52.8421 45.5663C52.7623 45.3777 52.8566 44.899 53.1104 44.1373L55.9757 36.7821C56.2368 36.0204 56.4762 35.5417 56.7083 35.3531C56.9405 35.1645 57.3684 35.0702 57.985 35.0702H61.0823L70.454 10.7123H70.4613Z" fill="black"/>
<path d="M94.8594 44.1446C94.5475 44.9062 94.2792 45.385 94.047 45.5736C93.8149 45.7622 93.3362 45.8565 92.6181 45.8565H83.3261C82.6007 45.8565 82.18 45.7622 82.0494 45.5736C81.9188 45.385 82.0131 44.9062 82.3178 44.1446L98.5806 1.71772C98.8925 0.956082 99.1754 0.47736 99.4293 0.288764C99.6904 0.100168 100.176 0.00585938 100.902 0.00585938H119.95C126.348 0.00585938 129.554 2.18923 129.554 6.5487C129.554 8.23881 129.061 10.4149 128.081 13.0915L125.369 20.1204C124.23 23.0654 123.214 25.3938 122.307 27.1129C121.401 28.832 120.334 30.1377 119.094 31.0372C117.854 31.9366 116.316 32.5242 114.488 32.7926C112.653 33.0682 110.237 33.1988 107.249 33.1988H99.1174L94.8594 44.1518V44.1446ZM108.337 22.398C109.113 22.398 109.759 22.3545 110.274 22.2747C110.789 22.1949 111.217 22.0426 111.55 21.825C111.884 21.6074 112.167 21.31 112.399 20.9255C112.631 20.5483 112.878 20.0261 113.132 19.3732L115.3 13.7299C115.765 12.475 115.866 11.6626 115.612 11.2781C115.351 10.9009 114.423 10.7051 112.827 10.7051H107.713L103.223 22.398H108.337Z" fill="black"/>
<path d="M135.75 44.146C135.489 44.9076 135.249 45.3864 135.017 45.5749C134.785 45.7635 134.357 45.8579 133.74 45.8579H123.984C123.368 45.8579 123.02 45.7635 122.94 45.5749C122.86 45.3864 122.954 44.9076 123.208 44.146L139.471 1.79895C139.783 1.03731 140.051 0.544036 140.283 0.326425C140.515 0.108814 140.943 0 141.56 0H151.164C151.577 0 151.889 0.0943086 152.092 0.282905C152.295 0.4715 152.404 1.08809 152.404 2.12537V23.6253L168.667 2.12537C169.443 1.08809 169.973 0.478754 170.256 0.282905C170.539 0.0943086 170.916 0 171.38 0H183.922C184.487 0 184.814 0.108814 184.886 0.326425C184.966 0.544036 184.85 1.03731 184.538 1.79895L168.275 44.146C168.014 44.9076 167.775 45.3864 167.543 45.5749C167.311 45.7635 166.912 45.8579 166.339 45.8579H156.423C155.857 45.8579 155.531 45.7635 155.458 45.5749C155.378 45.3864 155.473 44.9076 155.726 44.146L162.929 25.4242L149.379 43.7325C148.654 44.7698 148.168 45.3791 147.907 45.5749C147.646 45.7635 147.261 45.8579 146.746 45.8579H143.801C143.388 45.8579 143.119 45.7635 142.989 45.5749C142.858 45.3864 142.793 44.7698 142.793 43.7325V25.7506L135.75 44.146Z" fill="black"/>
</svg>
