<?xml version="1.0" encoding="UTF-8"?>
<svg xmlns="http://www.w3.org/2000/svg" viewBox="0 0 1628 842.89">
  <g id="Calque_5" data-name="Calque 5">
    <rect x="1295.5" y="525.5" width="332.5" height="122.5" fill="#1d1d1b"/>
  </g>
  <g id="Calque_2" data-name="Calque 2">
    <g>
      <path d="m1358.68,571.37h-4.27c-.85,0-1.33-.15-1.44-.45-.11-.3.05-.98.48-2.03l3.74-9.8c.43-1.05.8-1.73,1.12-2.03.32-.3.91-.45,1.76-.45h25.84c.78,0,1.23.15,1.33.45.11.3-.05.98-.48,2.03l-3.74,9.8c-.43,1.05-.8,1.73-1.12,2.03-.32.3-.87.45-1.65.45h-4.27l-12.92,33.58h4.27c.78,0,1.23.13,1.33.39.11.26-.02.92-.37,1.97l-3.95,10.14c-.36,1.05-.69,1.71-1.01,1.97-.32.26-.87.39-1.66.39h-25.84c-.85,0-1.33-.13-1.44-.39-.11-.26.02-.92.37-1.97l3.95-10.14c.36-1.05.69-1.71,1.01-1.97.32-.26.91-.39,1.76-.39h4.27l12.92-33.58Z" fill="#8cb9e4"/>
      <path d="m1395.09,571.37h-4.27c-.85,0-1.33-.15-1.44-.45-.11-.3.05-.98.48-2.03l3.74-9.8c.43-1.05.8-1.73,1.12-2.03.32-.3.91-.45,1.76-.45h25.84c.78,0,1.23.15,1.33.45.11.3-.05.98-.48,2.03l-3.74,9.8c-.43,1.05-.8,1.73-1.12,2.03-.32.3-.87.45-1.65.45h-4.27l-12.92,33.58h4.27c.78,0,1.23.13,1.33.39.11.26-.02.92-.37,1.97l-3.95,10.14c-.36,1.05-.69,1.71-1.01,1.97-.32.26-.87.39-1.66.39h-25.84c-.85,0-1.33-.13-1.44-.39-.11-.26.02-.92.37-1.97l3.95-10.14c.36-1.05.69-1.71,1.01-1.97.32-.26.91-.39,1.76-.39h4.27l12.92-33.58Z" fill="#4173a5"/>
      <path d="m1431.49,571.37h-4.27c-.85,0-1.33-.15-1.44-.45-.11-.3.05-.98.48-2.03l3.74-9.8c.43-1.05.8-1.73,1.12-2.03.32-.3.91-.45,1.76-.45h25.84c.78,0,1.23.15,1.33.45.11.3-.05.98-.48,2.03l-3.74,9.8c-.43,1.05-.8,1.73-1.12,2.03-.32.3-.87.45-1.65.45h-4.27l-12.92,33.58h4.27c.78,0,1.23.13,1.33.39.11.26-.02.92-.37,1.97l-3.95,10.14c-.36,1.05-.69,1.71-1.01,1.97-.32.26-.87.39-1.66.39h-25.84c-.85,0-1.33-.13-1.44-.39-.11-.26.02-.92.37-1.97l3.95-10.14c.36-1.05.69-1.71,1.01-1.97.32-.26.91-.39,1.76-.39h4.27l12.92-33.58Z" fill="#e52a1f"/>
      <path d="m1465.12,617.46c-.43,1.05-.8,1.71-1.12,1.97-.32.26-.98.39-1.97.39h-12.81c-1,0-1.58-.13-1.76-.39-.18-.26-.05-.92.37-1.97l22.42-58.49c.43-1.05.82-1.71,1.17-1.97.36-.26,1.03-.39,2.03-.39h26.26c8.82,0,13.24,3.01,13.24,9.02,0,2.33-.68,5.33-2.03,9.02l-3.74,9.69c-1.57,4.06-2.97,7.27-4.22,9.64-1.25,2.37-2.72,4.17-4.43,5.41s-3.83,2.05-6.35,2.42c-2.53.38-5.86.56-9.98.56h-11.21l-5.87,15.1Zm18.58-29.98c1.07,0,1.96-.06,2.67-.17.71-.11,1.3-.32,1.76-.62.46-.3.85-.71,1.17-1.24.32-.52.66-1.24,1.01-2.14l2.99-7.78c.64-1.73.78-2.85.43-3.38-.36-.52-1.64-.79-3.84-.79h-7.05l-6.19,16.12h7.05Z" fill="#9d9d9c"/>
      <path d="m1521.49,617.46c-.36,1.05-.69,1.71-1.01,1.97-.32.26-.91.39-1.76.39h-13.45c-.85,0-1.33-.13-1.44-.39-.11-.26.02-.92.37-1.97l22.42-58.38c.43-1.05.8-1.73,1.12-2.03.32-.3.91-.45,1.76-.45h13.24c.57,0,1,.13,1.28.39.28.26.43,1.11.43,2.54v29.64l22.42-29.64c1.07-1.43,1.8-2.27,2.19-2.54.39-.26.91-.39,1.55-.39h17.29c.78,0,1.23.15,1.33.45.11.3-.05.98-.48,2.03l-22.42,58.38c-.36,1.05-.69,1.71-1.01,1.97-.32.26-.87.39-1.66.39h-13.67c-.78,0-1.23-.13-1.33-.39-.11-.26.02-.92.37-1.97l9.93-25.81-18.68,25.24c-1,1.43-1.67,2.27-2.03,2.54-.36.26-.89.39-1.6.39h-4.06c-.57,0-.94-.13-1.12-.39-.18-.26-.27-1.11-.27-2.54v-24.79l-9.71,25.36Z" fill="#9d9d9c"/>
    </g>
  </g>
</svg>